<?xml version="1.0" encoding="utf-8"?>
<!-- Generator: Adobe Illustrator 18.0.0, SVG Export Plug-In . SVG Version: 6.00 Build 0)  -->
<!DOCTYPE svg PUBLIC "-//W3C//DTD SVG 1.1//EN" "http://www.w3.org/Graphics/SVG/1.1/DTD/svg11.dtd">
<svg version="1.1" id="ccdb08d7-40f3-45f2-8ef6-c6a673654779"
	 xmlns="http://www.w3.org/2000/svg" xmlns:xlink="http://www.w3.org/1999/xlink" x="0px" y="0px" viewBox="399.6 103.1 387 375"
	 enable-background="new 399.6 103.1 387 375" xml:space="preserve">
<g>
	<path fill="#262228" d="M654.7,414.2H532.4c-14.7,0-26.8-12-26.8-26.8V382c0-14.7,12-26.8,26.8-26.8h122.3
		c14.7,0,26.8,12,26.8,26.8v5.4C681.5,402.2,669.5,414.2,654.7,414.2z"/>
	<path fill="#4F4C5F" d="M535.8,191c-13.6-6.7-31.9-13.5-47.1-8c-9.8,3.5-14.1,12.9-13.7,22.8c0.2,4.5,1.6,9.2-0.1,13.6
		c-1.7,4.5-6.2,6.9-8.8,10.8c-3.9,5.8-5,14.7,0.4,19.9c6.4,6.2,17.3,2.5,24.5-0.2L535.8,191z"/>
	<path fill="#4F4C5F" d="M651.4,191c13.6-6.7,31.9-13.5,47.1-8c9.8,3.5,14.1,12.9,13.7,22.8c-0.2,4.5-1.6,9.2,0.1,13.6
		c1.7,4.5,6.2,6.9,8.8,10.8c3.9,5.8,5,14.7-0.4,19.9c-6.4,6.2-17.3,2.5-24.5-0.2L651.4,191z"/>
	<path fill="#E8A882" d="M687.9,352.9c40.7-70.4-4.7-189.6-89.4-167.3c-3.2,0.8-6.5,0.8-9.7,0c-84.7-22.4-130.1,96.9-89.4,167.3
		H687.9z"/>
	<path fill="#DE8957" d="M515.1,352.9c-35.9-62.1-4.8-162.2,61.2-169.6c-76.6-8.2-115.6,102.8-77,169.6h188.5H515.1z"/>
	<path fill="#E8A882" d="M528,383.8c16.6,11.1,38.3,17.9,65.6,17.9c27.3,0,49-6.8,65.6-17.9v-25.5H528V383.8z"/>
	<path fill="#DE8957" d="M543.8,378.5v-20.2H528v25.5c16.6,11.1,38.3,17.9,65.6,17.9c3.1,0,6.1-0.1,9-0.3
		C578.5,399.7,559,388.7,543.8,378.5z"/>
	<path fill="#DE8957" d="M593.6,250.4c-5.7,0-11.4-1.3-16.6-4c-8.2-4.1-17.9-4.1-26.1,0c-1.9,1-4.3,0.2-5.3-1.7
		c-1-1.9-0.2-4.3,1.7-5.3c10.4-5.3,22.8-5.3,33.2,0c8.2,4.1,17.9,4.1,26.1,0c10.4-5.3,22.8-5.3,33.2,0c1.9,1,2.7,3.4,1.7,5.3
		c-1,1.9-3.4,2.7-5.3,1.7c-8.2-4.1-17.9-4.1-26.1,0C605,249,599.3,250.4,593.6,250.4z"/>
	<path fill="#DE8957" d="M593.6,223.4c-4.2,0-8.4-1-12.3-2.9c-5.4-2.8-11.9-2.8-17.4,0c-1.9,1-4.3,0.2-5.3-1.7
		c-1-1.9-0.2-4.3,1.7-5.3c7.7-3.9,16.8-3.9,24.5,0c5.4,2.8,11.9,2.8,17.4,0c7.7-3.9,16.9-3.9,24.5,0c1.9,1,2.7,3.4,1.7,5.3
		c-1,1.9-3.4,2.7-5.3,1.7c-5.4-2.8-11.9-2.8-17.4,0C602,222.4,597.8,223.4,593.6,223.4z"/>
	<path fill="#5C586F" d="M566,288.8c0-15.3-13.2-27.8-29.5-27.8c-16.3,0-29.5,12.4-29.5,27.8c0,15.3,13.2,27.8,29.5,27.8
		C552.8,316.6,566,304.2,566,288.8z"/>
	<path fill="#5C586F" d="M680.2,288.8c0-15.3-13.2-27.8-29.5-27.8c-16.3,0-29.5,12.4-29.5,27.8c0,15.3,13.2,27.8,29.5,27.8
		C667,316.6,680.2,304.2,680.2,288.8z"/>
	<path fill="#4F4C5F" d="M610.5,288.4c32.4,4.7,60.3,22.8,73.8,48.8c8.2,15.7,2,35.1-13.7,43.2c-10.4,5.4-22.4,4.5-31.7-1.2
		c-13.3-8.3-28.8-12.5-44.5-12.5h-1.6c-15.9,0-31.3,4.7-45,12.8c-5,3-10.7,4.5-16.5,4.5c-5,0-10-1.2-14.7-3.6
		c-15.7-8.2-21.9-27.5-13.7-43.2c13.4-25.9,41.4-44,73.7-48.7H610.5z"/>
	<g>
		<path fill="#5C586F" d="M556.6,334.2c0,2.2-1.8,4.1-4.1,4.1c-2.2,0-4.1-1.8-4.1-4.1c0-2.2,1.8-4.1,4.1-4.1
			C554.7,330.2,556.6,332,556.6,334.2z"/>
		<path fill="#5C586F" d="M541.4,334.2c0,2.2-1.8,4.1-4.1,4.1c-2.2,0-4.1-1.8-4.1-4.1c0-2.2,1.8-4.1,4.1-4.1
			C539.6,330.2,541.4,332,541.4,334.2z"/>
		<path fill="#5C586F" d="M549,342.3c0,2.2-1.8,4.1-4.1,4.1c-2.2,0-4.1-1.8-4.1-4.1c0-2.2,1.8-4.1,4.1-4.1
			C547.2,338.3,549,340.1,549,342.3z"/>
		<path fill="#5C586F" d="M638.8,334.2c0,2.2-1.8,4.1-4.1,4.1c-2.2,0-4.1-1.8-4.1-4.1c0-2.2,1.8-4.1,4.1-4.1
			C636.9,330.2,638.8,332,638.8,334.2z"/>
		<path fill="#5C586F" d="M653.9,334.2c0,2.2-1.8,4.1-4.1,4.1c-2.2,0-4.1-1.8-4.1-4.1c0-2.2,1.8-4.1,4.1-4.1
			C652.1,330.2,653.9,332,653.9,334.2z"/>
		<path fill="#5C586F" d="M646.4,342.3c0,2.2-1.8,4.1-4.1,4.1c-2.2,0-4.1-1.8-4.1-4.1c0-2.2,1.8-4.1,4.1-4.1
			C644.5,338.3,646.4,340.1,646.4,342.3z"/>
	</g>
	<circle fill="#262228" cx="650.7" cy="288.8" r="11.8"/>
	<circle fill="#262228" cx="536.5" cy="288.8" r="11.8"/>
	
		<ellipse transform="matrix(0.9998 1.961601e-002 -1.961601e-002 0.9998 5.9022 -11.5872)" fill="#262228" cx="593.6" cy="295.1" rx="17.7" ry="11.8"/>
	<g>
		<path fill="#0375B4" d="M586.1,426.1L586.1,426.1c-0.5,6.7,5.2,12.3,11.9,12.8l0,0c6.7,0.5,12.3-5.2,12.8-11.9l0,0
			c0.5-6.7-5.2-12.3-11.9-12.8l0,0C591.7,413.9,586.1,419.6,586.1,426.1z M598.4,420.2c-1.2,0-2.2-0.8-2.2-2s0.8-2.2,2-2.2
			c1.2,0,2.2,0.8,2.2,2l0,0C600.7,419.2,599.6,420.3,598.4,420.2L598.4,420.2L598.4,420.2z"/>
		<path fill="#4D8AF0" d="M598.7,418.3c-3.9-3.1-3.9-8.3-1.1-11.5c0.3-0.7,0.8-1,1.8-1.5l0.2,0.5c-3.8,2.4-3.8,7-1.6,10.3
			c0.2,0.5,1,0.8,1.5,1.8L598.7,418.3z"/>
	</g>
</g>
<circle fill="#FFFFFF" cx="593.6" cy="290" r="177.4"/>
<g>
	<defs>
		<circle id="SVGID_1_" cx="593.6" cy="290" r="174.4"/>
	</defs>
	<clipPath id="SVGID_2_">
		<use xlink:href="#SVGID_1_"  overflow="visible"/>
	</clipPath>
	<g clip-path="url(#SVGID_2_)">
		
			<linearGradient id="SVGID_3_" gradientUnits="userSpaceOnUse" x1="607.4824" y1="128.9817" x2="607.4824" y2="706.684" gradientTransform="matrix(1 0 0 -1 -15.95 843.44)">
			<stop  offset="0" style="stop-color:#808080;stop-opacity:0.25"/>
			<stop  offset="0.54" style="stop-color:#808080;stop-opacity:0.12"/>
			<stop  offset="1" style="stop-color:#808080;stop-opacity:0.1"/>
		</linearGradient>
		<path fill="url(#SVGID_3_)" d="M678.1,296.6c0-0.1-0.1-0.2-0.2-0.3c-1.5-1.5-20.5-28.3-20.5-28.3s-1-3-2.6-6.9
			c0.5-0.7,0.9-1.4,1.2-2.3c0.1-0.3,0.2-0.7,0.2-1c0-0.1,0.1-0.2,0.1-0.3c0.3-1.4,0.3-2.8-0.1-4.1c-0.1,0.3-0.2,0.7-0.4,1
			c-0.4-1.2-0.9-2.3-1.5-3.3c-2.5-4.3-6.1-8-8.8-12.2c-4-6.6-5.6-14.3-4.5-22c0,0.4,0,0.8,0,1.2c0.1-1.5,0.3-3,0.6-4.5
			c0.4-1.7,1-3.3,1.7-4.9c2.4-5.5,6.2-10.2,8.6-15.7c0.8-1.8,1.4-3.8,1.8-5.7c0.8-3.3,1.1-6.7,0.9-10c0,0.8-0.1,1.6-0.3,2.4
			c-0.3-8.1-3.5-15.8-9.2-21.7c-8.2-8.2-19.9-11.4-31.1-13.1c-4.7-0.6-9.2-2.3-13.1-5c-4.3-2.8-9.9-3.5-14.9-2.9
			c-5.8,0.6-11.2,3.3-15.2,7.5c-5.3,5.9-7.6,14.2-13.9,19.1c-3.8,3-8.5,4.4-12.9,6.4s-8.5,5-10,9.4c0,0,0-0.1,0-0.1v0.3l-0.1,0.2
			c-1.5,5.2,1.4,10.5,2.8,15.6c1.5,5.4,1.6,11,1.7,16.5c0.1,6.8,0.2,13.5,0.1,20.3c0,2.7-0.1,5.4-0.3,8c-2.4,0.7-4.7,1.6-6.9,2.8
			c-2.2,1.5-10.6,10.5-10.6,10.5l-16.4,62.6l0.2,0.3l-0.2,0.9l0.8-0.2c2.3,2.5,9.3,9.6,16.7,14.1l0.7,12.3c0,0,0.8,12.3,12.2,17.4
			c0.3,4.3,1.1,21.6-2.7,28.5c-2.6,5-3.8,10.6-3.5,16.3c0,0,1.3,10.4-0.2,15.9c-0.9,3.7-0.9,7.5-0.2,11.2l0,0c0,0,0,1.2,0,3.3
			c0,11.1,0.1,46.6,0,50.7c-0.2,4.8,0,75,0,75s-0.9,35.1-3.9,44.6c-3,9.5-2.2,41-2.2,41s-1.9,37.5,4.7,44.9c0,0.3-0.1,0.7-0.1,1
			c0,0.2,0,0.3,0,0.5c-0.1,2.8,0.5,5.9,2.9,6.8c5,1.9,11.6,7.7,12.9,9.3s8.5,5.8,18,4.7c5.9-0.7,11.9-0.9,17.9-0.8l0,0
			c0,0,3.7-0.7,2.5-5.3l0,0l0,0c-0.8-2.9-3.7-7.4-5.8-10.3c0.4,0.1,0.8,0.2,1.1,0.3l0.4,0.1h0.3c0.2,0,0.3,0,0.5,0h0.2
			c0.2,0,0.4,0,0.6,0l0,0c2.5-0.2,11.9,4.1,13.5,7c1.7,2.9,7.6,5.1,12,5.6c2.6,0.3,9.3-0.2,14.9-0.9c2.8-0.3,5.6-0.8,8.3-1.5
			c1.3-0.5,1.6-2.1,1.2-3.9l0,0c-0.4-2.3-1.7-4.3-3.5-5.8c-1.6-1.2-3.8-4.2-5.3-6.7l-0.4-0.7c2.8-2.7,7.8-11.4,9.4-13.2
			c1.9-2.2-3-82.3-3-82.3v-40.1l7.5-38l5.2-20.1l4.5-30.4c0,0,7.8-35.5,5.4-38.9l0,0c0-0.1-2-36.6-4.1-45.3
			c-0.9-3.9-0.7-12.7-0.1-21.3c1.2-1.1,1.5-2.8,1-4.4c-0.1-0.5-0.3-1-0.6-1.5c0-0.1,0-0.3,0-0.5c4.3-2,8.8-3.5,13.5-4.6
			c7.5-1.5,5.6-5.3,5.6-5.3s1.7-3.3,2.8-5.3s0.2-19.8,0-21.2c-0.1-0.6-0.5-3.9-1.1-7.5c2.4-1.7,5.5-3.8,8.9-5.8
			C680.1,301.7,678.7,297.7,678.1,296.6z M580.9,550.2c0,0-5.6,14.3-3.3,17.9s-0.4,17.2-0.4,17.2l-1.9,20.1c0,0-5.2,37.3-3.4,46.1
			c1.5,6.9,2,27.4,2.2,36l0,0c-0.1,0-0.3,0.1-0.4,0.2l-0.3,0.1c0.9-3.4,0.5-10.2-3.8-23.9l-0.4-56.7c0,0-0.7-65.5,4.5-72.8
			c5.2-7.3,7-19.8,7-19.8s-1.1,17.9-1.8,22.7C578.4,542.1,580.9,550.2,580.9,550.2z M570.5,691c0,0.1-0.1,0.2-0.2,0.3l-0.3-0.4
			C570.3,691,570.4,691,570.5,691z"/>
		<path fill="#FFCE00" d="M642.9,470.8l-4.4,30.5l-5.1,20.2l-7.4,38.3v40.5c0,0,4.8,80.6,2.9,82.8s-8.8,14.7-10.7,14
			s-16.9-3.3-21.7-1.1s-21,0.4-21,0.4s-0.4-31.3-2.2-40.1c-1.8-8.8,3.3-46.4,3.3-46.4l1.8-20.2c0,0,2.6-13.6,0.4-17.3
			c-2.2-3.7,3.3-18,3.3-18s-2.6-8.1-1.8-12.9c0.7-4.8,1.8-22.8,1.8-22.8s-1.8,12.5-6.9,19.9c-5.1,7.3-4.5,73.2-4.5,73.2l0.4,57
			c9.2,30.2,0,27.2,0,27.2s-34.9,7.7-42,1.5s-5-45.7-5-45.7s-0.7-31.6,2.2-41.2s3.9-44.9,3.9-44.9s-0.2-70.7,0-75.4
			c0.1-4,0-39.8,0-51c0-2.1,0-3.3,0-3.3l4.2-10.5l50-6.3h23.9c0,0,36,8.5,39.7,12.1c0.1,0.1,0.1,0.1,0.2,0.2
			C650.6,435.1,642.9,470.8,642.9,470.8z"/>
		<path fill="#262228" d="M572.2,146.2c-5.3,5.9-7.5,14.2-13.7,19.2c-3.7,3-8.5,4.4-12.8,6.5c-4.3,2-8.6,5.1-9.9,9.8
			c-1.4,5.2,1.3,10.5,2.8,15.7c1.5,5.4,1.6,11,1.7,16.6c0.1,6.8,0.2,13.6,0.1,20.4c-0.2,10.6-1.1,21.7-6.7,30.7
			c20.3,6.5,42,7.4,63.3,8.2c4.1,0.3,8.2,0.2,12.3-0.3c3.5-0.7,7-1.6,10.5-2.6c6.8-1.8,13.8-2.7,20.9-2.7c3.1,0,6.2,0.2,9.2-0.6
			s5.8-2.9,6.6-5.8c0.7-2.7-0.3-5.5-1.7-7.9c-2.5-4.4-6-8-8.7-12.3c-5.5-9.2-6.3-20.5-2.2-30.4c2.4-5.5,6.2-10.3,8.5-15.8
			c4.9-12.1,2.2-25.8-6.7-35.3c-8.1-8.3-19.7-11.5-30.7-13.2c-4.7-0.6-9.1-2.3-12.9-5c-4.3-2.8-9.8-3.5-14.7-2.9
			C581.4,139.2,576.1,141.9,572.2,146.2z"/>
		<g opacity="0.1">
			<path d="M644.1,204.9c-2,4.8-2.9,10.1-2.5,15.3c0.2-3.7,1.1-7.4,2.5-10.8c2.3-5.5,6.2-10.3,8.5-15.8c1.9-4.6,2.7-9.6,2.3-14.5
				c-0.2,3.5-1,6.9-2.3,10.1C650.3,194.6,646.5,199.4,644.1,204.9z"/>
			<path d="M540.6,212.6c0.1,3.9,0.1,7.9,0.1,11.8c0-5.4,0-10.8-0.1-16.2c-0.1-5.6-0.2-11.3-1.7-16.6c-1-3.4-2.5-6.9-3-10.3
				c-0.9,4.9,1.6,9.9,3,14.8C540.4,201.3,540.5,207,540.6,212.6z"/>
			<path d="M650,261.3c-3,0.8-6.1,0.6-9.2,0.6c-7,0-14,0.8-20.8,2.6c-3.4,1.1-6.9,1.9-10.5,2.6c-4.1,0.5-8.2,0.6-12.3,0.3
				c-20.6-0.8-41.5-1.7-61.2-7.6c-0.6,1.3-1.3,2.6-2,3.8c20.3,6.5,42,7.4,63.3,8.2c4.1,0.3,8.2,0.2,12.3-0.3c3.5-0.7,7-1.6,10.4-2.6
				c6.8-1.8,13.8-2.7,20.8-2.6c3.1,0,6.2,0.2,9.2-0.6s5.8-2.8,6.6-5.8c0.3-1.4,0.3-2.8-0.1-4.2C655.6,258.6,652.9,260.5,650,261.3z"
				/>
		</g>
		<path fill="#FBBEBE" d="M620.4,249.5c-0.7,1.7-3.9,16-4.6,17.5c-0.7,1.5-4.8,25-5.1,26.3s-26.6-5.5-26.6-5.5l-15.8-13.3L552,258.3
			c0,0-0.5-14.6,11.5-19.3c0.8-0.3,1.6-0.6,2.5-0.8c14.5-3.5,13.1-47.6,13.1-47.6l29.8,12.9c0,0-5.5,25.8-5.3,30.7
			c0,1.7,1.4,2.7,3.1,3.3c2.6,0.8,5.4,1,8.1,0.9C614.7,238.5,621.2,247.8,620.4,249.5z"/>
		<path fill="#6C63FF" d="M673.8,297.9l4.2,1.1c0,0,3.1,4.8-4.2,9.2c-4.7,2.8-9.2,6-13.4,9.4l-21.8,6.6l-4.2-13.1l20.2-15.4
			L673.8,297.9z"/>
		<path fill="#A05912" d="M673.8,297.9l4.2,1.1c0,0,3.1,4.8-4.2,9.2c-4.7,2.8-9.2,6-13.4,9.4l-21.8,6.6l-4.2-13.1l20.2-15.4
			L673.8,297.9z"/>
		<path fill="#6C63FF" d="M515,310.6l-8.5,8.3c0,0,15.3,17.7,27,18.8s19.3-13.4,19.3-13.4l-10.2-16L515,310.6z"/>
		<path fill="#A05912" d="M515,310.6l-8.5,8.3c0,0,15.3,17.7,27,18.8s19.3-13.4,19.3-13.4l-10.2-16L515,310.6z"/>
		<circle opacity="0.1" enable-background="new    " cx="595.4" cy="190.1" r="29.4"/>
		<circle fill="#FBBEBE" cx="595.4" cy="187.9" r="29.4"/>
		<path opacity="0.1" enable-background="new    " d="M648.2,434.9c-6.7,0.8-13.3,2.2-19.7,4.4c-11,3.7-97.2,0.1-98.4,0
			c0-2.1,0-3.3,0-3.3l4.2-10.5l50-6.3h23.9c0,0,36,8.5,39.7,12.1C648.1,433.6,648.2,434.9,648.2,434.9z"/>
		<path opacity="0.1" enable-background="new    " d="M620.4,249.5c-0.7,1.7-3.9,16-4.6,17.5c-0.7,1.5-4.8,25-5.1,26.3
			s-26.6-5.5-26.6-5.5l-15.8-13.3L552,258.3c0,0-0.5-14.6,11.5-19.3l29.7,34.2l13.4-35.6c2.6,0.8,5.4,1,8.1,0.9
			C614.7,238.5,621.2,247.8,620.4,249.5z"/>
		<path fill="#FFCE00" d="M593.2,274.3l-30.4-35c-3.6-2.3-8.2-2.6-12.1-0.9c-6.8,3-15.3,5.3-17.5,6.8s-10.5,10.6-10.5,10.6
			l24.7,64.5l-10.9,42.5c0,0,1.7,21.7-2.6,29.6c-2.6,5.1-3.8,10.7-3.5,16.4c0,0,1.3,10.5-0.2,16c-0.9,3.7-0.9,7.5-0.2,11.2
			c0,0,87.4,3.7,98.4,0c6.4-2.2,13-3.6,19.7-4.4c0,0-2-36.8-4-45.6s1.7-42.5,1.7-42.5l-2.4-36.1l14.3-37c0,0-7.8-23.7-15.9-26.1
			c0,0-14.7-3.5-17.8-5.1s-12.3-3.1-12.3-3.1l-4.8,1.6L593.2,274.3z"/>
		<path opacity="0.1" enable-background="new    " d="M571.6,301.9l64,4.4c1.6,0.1,2.8,1.5,2.7,3.1l-6.9,101.1
			c-0.1,1.6-1.5,2.8-3.1,2.7l-64-4.4c-1.6-0.1-2.8-1.5-2.7-3.1l6.9-101.1C568.6,303,570,301.8,571.6,301.9z"/>
		<path fill="#262228" d="M573.8,299.7l64,4.4c1.6,0.1,2.8,1.5,2.7,3.1l-6.9,101.1c-0.1,1.6-1.5,2.8-3.1,2.7l-64-4.4
			c-1.6-0.1-2.8-1.5-2.7-3.1l6.9-101.1C570.8,300.8,572.2,299.6,573.8,299.7z"/>
		
			<rect x="571.7" y="309.8" transform="matrix(-0.9977 -6.784127e-002 6.784127e-002 -0.9977 1178.7969 751.8066)" fill="#FFFFFF" width="61" height="92.2"/>
		
			<rect x="580" y="333.7" transform="matrix(-0.9976 -6.982925e-002 6.982925e-002 -0.9976 1184.5835 722.6647)" opacity="0.1" enable-background="new    " width="49.9" height="13.9"/>
		
			<rect x="620.3" y="390.2" transform="matrix(-0.9977 -6.784127e-002 6.784127e-002 -0.9977 1220.406 829.1653)" opacity="0.1" enable-background="new    " width="7.9" height="7.2"/>
		
			<rect x="580" y="371.7" transform="matrix(-0.9977 -6.784127e-002 6.784127e-002 -0.9977 1173.6453 790.501)" opacity="0.1" enable-background="new    " width="40.5" height="7.2"/>
		
			<rect x="585.7" y="307.1" transform="matrix(-0.9977 -6.784127e-002 6.784127e-002 -0.9977 1190.968 665.7162)" fill="#3F3D56" width="42.2" height="11.1"/>
		
			<rect x="585.7" y="307.1" transform="matrix(-0.9977 -6.784127e-002 6.784127e-002 -0.9977 1190.968 665.7162)" fill="#262228" width="42.2" height="11.1"/>
		<path opacity="0.1" enable-background="new    " d="M596.9,432.9c0,0-0.4,54.5-14.7,85.7c0,0,17.3-41.2,17.3-42.9s9.6-19,7-24.1
			S596.9,432.9,596.9,432.9z"/>
		<path opacity="0.1" enable-background="new    " d="M597.7,180.5c-0.5-4.8,0.6-9.7,3.3-13.7c-0.7,8.4,4.9,15.9,13.1,17.8
			c-0.7-0.6-0.9-1.6-0.6-2.4c2,2.3,3.6,5.1,5.9,7.1s5.8,3.3,8.5,1.8c3.7-2,3.8-7.3,2.8-11.4c-2.1-8.7-6.3-16.8-12.3-23.5
			c-3-4.1-7.8-6.5-12.9-6.6c-5.7-0.4-11.6,0.1-16.7,2.6c-2.9,1.6-5.5,3.4-8,5.6l-14,11.4c-1.3,1-2.5,2.2-3.4,3.6
			c-0.6,1.2-1,2.4-1.1,3.8c-0.7,7.6,2.9,15,9.4,19.1c-0.1-6,3.4-11.6,8.9-14c0.9,0.7,1.4,1.8,1.4,2.9l3-5.3c0.4-1,1.1-1.8,2-2.4
			c1.8-1,4.1,0.2,5.6,1.6c1.5,1.4,3.1,3.2,5.1,3.4l0.1-7.8"/>
		<path fill="#262228" d="M597.7,179.4c-0.6-4.8,0.6-9.7,3.3-13.7c-0.9,8,5.1,16.3,13.1,17.8c-0.7-0.6-0.9-1.6-0.6-2.4
			c2,2.3,3.6,5.1,5.9,7.1s5.8,3.3,8.5,1.8c3.7-2,3.8-7.3,2.8-11.4c-2.1-8.7-6.3-16.8-12.3-23.5c-1.9-2.3-4.2-4.1-6.9-5.3
			c-1.9-0.7-3.9-1.1-6-1.2c-5.7-0.4-11.6,0-16.7,2.6c-2.9,1.6-5.5,3.4-8,5.6l-14,11.4c-1.3,1-2.5,2.2-3.4,3.6
			c-0.6,1.2-1,2.4-1.1,3.8c-0.7,7.6,2.9,15,9.4,19.1c-0.1-6,3.4-11.6,8.9-14c0.9,0.7,1.4,1.8,1.4,2.9l2.9-5.2c0.4-1,1.1-1.8,2-2.4
			c1.8-1,4.1,0.2,5.6,1.6c1.5,1.4,3.1,3.2,5.1,3.4l0.1-7.8"/>
		<path fill="#FBBEBE" d="M611.6,365c-2.6-1.3-45.1,5.3-45.1,5.3s-7-2-23.9-4.8c-16.9-2.8-18-19.3-18-19.3l-1.8-33.1l5.7-5l24.5,16
			c0,0,0.4,8.1,0,9.5c-0.2,1-0.9,2.2-0.8,3c0,0.5,0.4,0.8,0.8,0.9c1.7,0.4,24.3,4.1,24.3,4.1s52.4-3.6,65.5,14.1
			c1,1.3,1.8,2.8,2.3,4.4C648.3,372.2,613.9,366.2,611.6,365z"/>
		<path opacity="0.1" enable-background="new    " d="M645,360.2c-2,0.9-3.2,1.5-3.2,1.5s-18.8-0.5-29.3-4.4
			c-10.5-3.8-23.3-3.1-23.3-3.1s-43.9-7.6-37.1-17.4c0,0.5,0.4,0.8,0.8,0.9c1.7,0.4,24.3,4.1,24.3,4.1s52.4-3.6,65.5,14.1
			C643.7,357.1,644.5,358.6,645,360.2z"/>
		<path fill="#FBBEBE" d="M663.3,301.9c0,0,2.6,18.2,2.8,19.7s1.1,19.3,0,21.3s-2.8,5.3-2.8,5.3s1.8,3.9-5.5,5.3s-16,5.9-16,5.9
			s-18.8-0.5-29.3-4.4s-23.4-3.1-23.4-3.1s-55.8-9.6-31.8-21.3c23.9-11.7,40.8,4.1,40.8,4.1l26.7-1.6c0,0,9.9-6.1,12.7-5.5
			c1.9,0.2,3.9-0.1,5.7-0.9l0.2-19.3L663.3,301.9z"/>
		<path opacity="0.1" enable-background="new    " d="M528,257.2l-5.3-0.3l-16.2,63c0,0,17.5-4.4,25,0c7.5,4.4,21.3,5.3,21.3,5.3
			l-5.2-50.2L528,257.2z"/>
		<path fill="#FFCE00" d="M528,256.1l-5.3-0.3l-16.2,63c0,0,17.5-4.4,25,0c7.5,4.4,21.3,5.3,21.3,5.3l-5.2-50.2L528,256.1z"/>
		<path opacity="0.1" enable-background="new    " d="M650.4,269.9l7.3,1.7c0,0,18.8,27,20.2,28.5s-7,7-10.5,7s-20.6,2-25.6,6.6
			s-2.9-18.6-2.9-19.2s6.2-15.2,6.2-15.2L650.4,269.9z"/>
		<path fill="#FFCE00" d="M650.4,268.8l7.3,1.6c0,0,18.8,27,20.2,28.5s-7,7-10.5,7s-20.6,2-25.6,6.6S639,294,639,293.4
			s6.2-15.3,6.2-15.3L650.4,268.8z"/>
		<g opacity="0.1">
			<path d="M600.9,165.8c0-0.8,0-1.5,0-2.3c-1.5,2.3-2.6,4.9-3.1,7.5v2.3c0,0,0,0,0-0.1v0.5c0,1.6,0,3.3,0,4.9h-0.1v0.8
				c0-0.3,0-0.5,0-0.8c-2-0.3-3.4-2-4.9-3.3c-1.5-1.3-3.8-2.6-5.6-1.6c-0.9,0.6-1.6,1.4-2,2.4l-3,5.2c0-1.1-0.5-2.2-1.4-2.9
				c-5.5,2.4-9.1,8-8.9,14c-5.5-3.5-9.1-9.4-9.5-15.9c-0.4,7.3,3.3,14.3,9.5,18.1c-0.1-6,3.4-11.6,8.9-14c0.9,0.7,1.4,1.8,1.4,2.9
				l2.9-5.2c0.4-1,1.1-1.8,2-2.4c1.8-1,4.1,0.2,5.6,1.6c1.6,1.4,3.1,3.2,5.1,3.4c0-2.6,0-5.1,0.1-7.7
				C598.4,170.6,599.4,168,600.9,165.8z"/>
			<path d="M597.6,175.8c0-0.7,0.1-1.4,0.2-2l0.1-2.8C597.6,172.6,597.5,174.2,597.6,175.8z"/>
			<path d="M627.9,187.8c-2.7,1.5-6.2,0.2-8.5-1.8s-3.9-4.8-5.9-7.1c-0.3,0.9-0.1,1.8,0.6,2.4c-0.2,0-0.4-0.1-0.6-0.1
				c2,2.3,3.6,5,5.9,7c2.3,2,5.8,3.3,8.5,1.8s3.5-4.9,3.3-8.2C631,184.3,630,186.6,627.9,187.8z"/>
			<path d="M613.4,181.1c-6.8-1.9-11.8-7.8-12.5-14.9c-0.6,7.9,5.4,15.7,13.1,17.2C613.4,182.9,613.1,182,613.4,181.1z"/>
		</g>
	</g>
</g>
</svg>
