<?xml version="1.0" encoding="utf-8"?>
<!-- Generator: Adobe Illustrator 18.0.0, SVG Export Plug-In . SVG Version: 6.00 Build 0)  -->
<!DOCTYPE svg PUBLIC "-//W3C//DTD SVG 1.1//EN" "http://www.w3.org/Graphics/SVG/1.1/DTD/svg11.dtd">
<svg version="1.1" id="ccdb08d7-40f3-45f2-8ef6-c6a673654779"
	 xmlns="http://www.w3.org/2000/svg" xmlns:xlink="http://www.w3.org/1999/xlink" x="0px" y="0px" viewBox="746.9 96.8 680 701.8"
	 enable-background="new 746.9 96.8 680 701.8" xml:space="preserve">
<g>
	<path fill="#262228" d="M1192.1,683.8H963.8c-27.4,0-50-22.4-50-50v-10.1c0-27.4,22.4-50,50-50h228.3c27.4,0,50,22.4,50,50v10.1
		C1242.1,661.4,1219.7,683.8,1192.1,683.8z"/>
	<path fill="#4F4C5F" d="M970.1,267.2c-25.4-12.5-59.5-25.2-87.9-14.9c-18.3,6.5-26.3,24.1-25.6,42.6c0.4,8.4,3,17.2-0.2,25.4
		c-3.2,8.4-11.6,12.9-16.4,20.2c-7.3,10.8-9.3,27.4,0.7,37.1c11.9,11.6,32.3,4.7,45.7-0.4L970.1,267.2z"/>
	<path fill="#4F4C5F" d="M1185.9,267.2c25.4-12.5,59.5-25.2,87.9-14.9c18.3,6.5,26.3,24.1,25.6,42.6c-0.4,8.4-3,17.2,0.2,25.4
		c3.2,8.4,11.6,12.9,16.4,20.2c7.3,10.8,9.3,27.4-0.7,37.1c-11.9,11.6-32.3,4.7-45.7-0.4L1185.9,267.2z"/>
	<path fill="#E8A882" d="M1254.1,569.4c76-131.4-8.8-353.9-166.9-312.3c-6,1.5-12.1,1.5-18.1,0C911,215.3,826.2,438,902.2,569.4
		H1254.1z"/>
	<path fill="#DE8957" d="M931.5,569.4c-67-115.9-9-302.8,114.2-316.6C902.8,237.5,830,444.7,902,569.4h351.9H931.5z"/>
	<path fill="#E8A882" d="M955.6,627.1c31,20.7,71.5,33.4,122.5,33.4c51,0,91.5-12.7,122.5-33.4v-47.6H955.6V627.1z"/>
	<path fill="#DE8957" d="M985.1,617.2v-37.7h-29.5v47.6c31,20.7,71.5,33.4,122.5,33.4c5.8,0,11.4-0.2,16.8-0.6
		C1049.8,656.8,1013.4,636.2,985.1,617.2z"/>
	<path fill="#DE8957" d="M1078,378.1c-10.6,0-21.3-2.4-31-7.5c-15.3-7.7-33.4-7.7-48.7,0c-3.5,1.9-8,0.4-9.9-3.2
		c-1.9-3.5-0.4-8,3.2-9.9c19.4-9.9,42.6-9.9,62,0c15.3,7.7,33.4,7.7,48.7,0c19.4-9.9,42.6-9.9,62,0c3.5,1.9,5,6.3,3.2,9.9
		c-1.9,3.5-6.3,5-9.9,3.2c-15.3-7.7-33.4-7.7-48.7,0C1099.3,375.4,1088.7,378.1,1078,378.1z"/>
	<path fill="#DE8957" d="M1078,327.7c-7.8,0-15.7-1.9-23-5.4c-10.1-5.2-22.2-5.2-32.5,0c-3.5,1.9-8,0.4-9.9-3.2
		c-1.9-3.5-0.4-8,3.2-9.9c14.4-7.3,31.4-7.3,45.7,0c10.1,5.2,22.2,5.2,32.5,0c14.4-7.3,31.5-7.3,45.7,0c3.5,1.9,5,6.3,3.2,9.9
		c-1.9,3.5-6.3,5-9.9,3.2c-10.1-5.2-22.2-5.2-32.5,0C1093.7,325.8,1085.9,327.7,1078,327.7z"/>
	<path fill="#5C586F" d="M1026.5,449.7c0-28.6-24.6-51.9-55.1-51.9c-30.4,0-55.1,23.1-55.1,51.9c0,28.6,24.6,51.9,55.1,51.9
		C1001.9,501.6,1026.5,478.5,1026.5,449.7z"/>
	<path fill="#5C586F" d="M1239.7,449.7c0-28.6-24.6-51.9-55.1-51.9s-55.1,23.1-55.1,51.9c0,28.6,24.6,51.9,55.1,51.9
		C1215,501.6,1239.7,478.5,1239.7,449.7z"/>
	<path fill="#4F4C5F" d="M1109.6,449c60.5,8.8,112.6,42.6,137.8,91.1c15.3,29.3,3.7,65.5-25.6,80.6c-19.4,10.1-41.8,8.4-59.2-2.2
		c-24.8-15.5-53.8-23.3-83.1-23.3h-3c-29.7,0-58.4,8.8-84,23.9c-9.3,5.6-20,8.4-30.8,8.4c-9.3,0-18.7-2.2-27.4-6.7
		c-29.3-15.3-40.9-51.3-25.6-80.6c25-48.3,77.3-82.1,137.6-90.9h63.3V449z"/>
	<g>
		<path fill="#5C586F" d="M1009,534.5c0,4.1-3.4,7.7-7.7,7.7c-4.1,0-7.7-3.4-7.7-7.7c0-4.1,3.4-7.7,7.7-7.7
			C1005.4,527,1009,530.4,1009,534.5z"/>
		<path fill="#5C586F" d="M980.6,534.5c0,4.1-3.4,7.7-7.7,7.7c-4.1,0-7.7-3.4-7.7-7.7c0-4.1,3.4-7.7,7.7-7.7
			C977.2,527,980.6,530.4,980.6,534.5z"/>
		<path fill="#5C586F" d="M994.8,549.6c0,4.1-3.4,7.7-7.7,7.7c-4.1,0-7.7-3.4-7.7-7.7c0-4.1,3.4-7.7,7.7-7.7
			C991.4,542.1,994.8,545.5,994.8,549.6z"/>
		<path fill="#5C586F" d="M1162.4,534.5c0,4.1-3.4,7.7-7.7,7.7c-4.1,0-7.7-3.4-7.7-7.7c0-4.1,3.4-7.7,7.7-7.7
			C1158.9,527,1162.4,530.4,1162.4,534.5z"/>
		<path fill="#5C586F" d="M1190.6,534.5c0,4.1-3.4,7.7-7.7,7.7c-4.1,0-7.7-3.4-7.7-7.7c0-4.1,3.4-7.7,7.7-7.7
			C1187.2,527,1190.6,530.4,1190.6,534.5z"/>
		<path fill="#5C586F" d="M1176.6,549.6c0,4.1-3.4,7.7-7.7,7.7c-4.1,0-7.7-3.4-7.7-7.7c0-4.1,3.4-7.7,7.7-7.7
			C1173,542.1,1176.6,545.5,1176.6,549.6z"/>
	</g>
	<circle fill="#262228" cx="1184.6" cy="449.7" r="22"/>
	<circle fill="#262228" cx="971.4" cy="449.7" r="22"/>
	
		<ellipse transform="matrix(1.961614e-002 -0.9998 0.9998 1.961614e-002 595.4697 1530.2594)" fill="#262228" cx="1078" cy="461.5" rx="22" ry="33"/>
	<g>
		<path fill="#0375B4" d="M1064,706L1064,706c-0.9,12.5,9.7,23,22.2,23.9l0,0c12.5,0.9,23-9.7,23.9-22.2l0,0
			c0.9-12.5-9.7-23-22.2-23.9l0,0C1074.5,683.3,1064,693.9,1064,706z M1087,695c-2.2,0-4.1-1.5-4.1-3.7c0-2.2,1.5-4.1,3.7-4.1
			s4.1,1.5,4.1,3.7l0,0C1091.3,693.2,1089.2,695.2,1087,695L1087,695L1087,695z"/>
		<path fill="#4D8AF0" d="M1087.6,691.5c-7.3-5.8-7.3-15.5-2.1-21.5c0.6-1.3,1.5-1.9,3.4-2.8l0.4,0.9c-7.1,4.5-7.1,13.1-3,19.2
			c0.4,0.9,1.9,1.5,2.8,3.4L1087.6,691.5z"/>
	</g>
</g>
<circle fill="#FFFFFF" cx="1078" cy="452" r="331.1"/>
<g>
	<path fill="#007849" d="M978.6,351L862.5,467.1c-55.1,55.1-55.1,145.3,0,200.4l0,0c55.1,55.1,145.3,55.1,200.4,0l116.1-116.1
		L978.6,351z"/>
	<path fill="#EBBA16" d="M1179.2,551.2l114.3-114.3c55.1-55.1,55.1-145.3,0-200.4l0,0c-55.1-55.1-145.3-55.1-200.4,0L978.8,350.8
		L1179.2,551.2z"/>
	<path fill="#58DDA4" d="M1016.4,388.4L864.9,540c-5.2,5.2-5.2,13.6,0,18.8c2.6,2.6,6,3.9,9.4,3.9s6.8-1.3,9.4-3.9l151.6-151.6
		L1016.4,388.4z"/>
	<path fill="#FCD770" d="M1035.2,407.2L1176,266.5c5.2-5.2,5.2-13.6,0-18.8c-5.2-5.2-13.6-5.2-18.8,0l-140.8,140.8L1035.2,407.2z"/>
</g>
</svg>
